External Loads File
version=1
nRows=93
nColumns=13
Range=5.000000e-03-10 seconds
endheader
time 	forceRightX 	forceRightY 	forceRightZ 	pointRightX 	pointRightY 	pointRightZ 	forceLeftX 	forceLeftY 	forceLeftZ 	pointLeftX 	pointLeftY 	pointLeftZ 		
5.005000 115.942871 517.331033 -0.000000 0.445386 0.380396 -0.129881 131.410771 108.428941 -0.000000 0.159381 0.238270 -0.378594
5.010000 117.075425 547.652286 -0.000000 0.447497 0.370900 -0.129800 125.630816 89.886226 -0.000000 0.156723 0.247466 -0.378796
5.015000 115.843683 577.661368 -0.000000 0.449170 0.360945 -0.129739 120.868207 72.917144 -0.000000 0.154623 0.257147 -0.378890
5.020000 111.326513 607.134062 -0.000000 0.450376 0.350674 -0.129626 116.619455 57.435280 -0.000000 0.153182 0.266775 -0.379036
5.025000 105.763961 635.499725 -0.000000 0.451294 0.339899 -0.129761 112.682510 42.774846 -0.000000 0.152360 0.276970 -0.379095
5.030000 97.619919 663.137828 -0.000000 0.451694 0.328998 -0.129472 108.488950 29.070064 -0.000000 0.152255 0.286972 -0.379090
5.035000 88.179543 690.122779 -0.000000 0.451321 0.317982 -0.129617 103.783029 16.016334 -0.000000 0.152783 0.296984 -0.379113
5.040000 78.228104 716.780145 -0.000000 0.450651 0.306998 -0.129436 98.362874 3.487379 -0.000000 0.154025 0.306995 -0.379158
5.045000 69.227271 743.450994 -0.000000 0.449225 0.295893 -0.130079 92.124176 -8.707138 -0.000000 0.155844 0.317034 -0.379144
5.050000 61.556458 770.582464 -0.000000 0.447323 0.284756 -0.130363 85.009496 -20.597056 -0.000000 0.158394 0.326930 -0.379134
5.055000 56.203204 798.466488 -0.000000 0.444848 0.273624 -0.130533 76.997395 -32.246639 -0.000000 0.161512 0.336783 -0.378971
5.060000 53.996337 827.292653 -0.000000 0.441616 0.262557 -0.130229 68.099744 -43.613174 -0.000000 0.165316 0.346607 -0.378823
5.065000 54.424780 857.219956 -0.000000 0.437917 0.251717 -0.130441 58.435996 -54.466926 -0.000000 0.169661 0.356271 -0.378581
5.070000 58.216701 888.271589 -0.000000 0.433687 0.241012 -0.130623 48.078302 -64.621341 -0.000000 0.174715 0.365754 -0.378338
5.075000 65.212369 920.534710 -0.000000 0.428885 0.230529 -0.130732 37.147869 -73.749871 -0.000000 0.180321 0.375064 -0.377987
5.080000 75.343871 954.023078 -0.000000 0.423490 0.220392 -0.130874 25.832068 -81.453994 -0.000000 0.186377 0.384315 -0.377889
5.085000 87.582980 988.526019 -0.000000 0.417671 0.210646 -0.131221 14.584568 -87.264365 -0.000000 0.192930 0.393166 -0.377584
5.090000 102.580358 1023.198663 -0.000000 0.411289 0.201437 -0.131505 3.886244 -90.827376 -0.000000 0.199933 0.401728 -0.377297
5.095000 120.621367 1056.767981 -0.000000 0.404397 0.192649 -0.131864 -5.759650 -91.954761 -0.000000 0.207374 0.409800 -0.376901
5.100000 143.126094 1087.570170 -0.000000 0.396939 0.184287 -0.132026 -14.112643 -90.630160 -0.000000 0.215288 0.417735 -0.376604
5.105000 168.596738 1114.185030 -0.000000 0.389183 0.176421 -0.132434 -20.887519 -86.969821 -0.000000 0.223654 0.425378 -0.376207
5.110000 195.929538 1135.140639 -0.000000 0.381012 0.169262 -0.132946 -26.043441 -81.171160 -0.000000 0.232355 0.432540 -0.375913
5.115000 225.008506 1148.737780 -0.000000 0.372498 0.162588 -0.133303 -29.787245 -73.434153 -0.000000 0.241331 0.439275 -0.375409
5.120000 254.511605 1153.542568 -0.000000 0.363801 0.156459 -0.133766 -32.351848 -63.963400 -0.000000 0.250628 0.445350 -0.374849
5.125000 284.879616 1147.987482 -0.000000 0.354666 0.151060 -0.134212 -34.101410 -52.895935 -0.000000 0.260338 0.450863 -0.374686
5.130000 313.625896 1131.512400 -0.000000 0.345343 0.146215 -0.134647 -35.222079 -40.499525 -0.000000 0.270224 0.455806 -0.374344
5.135000 339.654519 1103.731653 -0.000000 0.335842 0.142008 -0.135047 -35.973625 -27.130746 -0.000000 0.280369 0.460083 -0.374349
5.140000 360.951979 1065.104313 -0.000000 0.326244 0.138453 -0.135407 -36.629267 -13.310975 -0.000000 0.290586 0.463627 -0.373649
5.145000 377.190076 1016.146939 -0.000000 0.316509 0.135625 -0.135654 -37.575522 0.430159 -0.000000 0.300990 0.466525 -0.373364
5.150000 387.125788 958.194511 -0.000000 0.306762 0.133346 -0.135962 -39.233398 13.545723 -0.000000 0.311498 0.468885 -0.373183
5.155000 389.662447 893.061474 -0.000000 0.297288 0.131871 -0.135880 -42.043817 25.544899 -0.000000 0.322072 0.470550 -0.372900
5.160000 386.582291 821.703527 -0.000000 0.287414 0.131094 -0.136622 -46.302623 36.165577 -0.000000 0.332618 0.471488 -0.372671
5.165000 376.266023 746.845145 -0.000000 0.277923 0.131062 -0.137047 -52.296301 45.110585 -0.000000 0.343066 0.471857 -0.372380
5.170000 360.203815 669.971824 -0.000000 0.268580 0.131550 -0.137483 -60.070254 52.377992 -0.000000 0.353448 0.471616 -0.371909
5.175000 339.734645 592.549791 -0.000000 0.259261 0.132878 -0.138277 -69.474141 58.126297 -0.000000 0.363739 0.470673 -0.371650
5.180000 314.497917 516.866097 -0.000000 0.250391 0.134250 -0.138571 -80.358629 62.409280 -0.000000 0.373781 0.469247 -0.371207
5.185000 286.957860 443.361682 -0.000000 0.241651 0.137017 -0.138853 -92.148371 65.687915 -0.000000 0.383581 0.467033 -0.370774
5.190000 256.956707 373.841412 -0.000000 0.233431 0.139974 -0.138937 -104.486679 68.067448 -0.000000 0.393067 0.464185 -0.370303
5.195000 226.390752 308.597911 -0.000000 0.224990 0.143687 -0.139846 -116.700034 70.123878 -0.000000 0.402176 0.460684 -0.369756
5.200000 194.914880 249.323960 -0.000000 0.217651 0.147767 -0.139754 -128.624186 71.793907 -0.000000 0.410866 0.456585 -0.369338
5.205000 164.271649 196.071249 -0.000000 0.210423 0.152593 -0.139904 -139.790987 73.833876 -0.000000 0.419074 0.451978 -0.369052
5.210000 134.982724 149.626444 -0.000000 0.203598 0.157494 -0.140015 -150.188584 76.622969 -0.000000 0.426763 0.446619 -0.368797
5.215000 107.980194 110.176884 -0.000000 0.197229 0.163061 -0.140122 -159.809006 80.900653 -0.000000 0.433844 0.440653 -0.368584
5.220000 83.934709 77.714172 -0.000000 0.191192 0.168904 -0.140208 -168.796177 87.397348 -0.000000 0.440378 0.434111 -0.368558
5.225000 63.360930 51.865654 -0.000000 0.185587 0.175298 -0.140300 -177.329207 96.952269 -0.000000 0.446172 0.426968 -0.368521
5.230000 46.504633 31.977304 -0.000000 0.180316 0.182114 -0.140365 -185.582220 110.499096 -0.000000 0.451396 0.419268 -0.368665
5.235000 33.274943 17.252148 -0.000000 0.175431 0.189320 -0.140477 -193.820889 128.832372 -0.000000 0.455839 0.411047 -0.368794
5.240000 23.353568 6.780643 -0.000000 0.171151 0.196911 -0.140503 -202.276578 152.774594 -0.000000 0.459580 0.402378 -0.368997
5.245000 16.257724 -0.353990 -0.000000 0.166689 0.204984 -0.141024 -210.690946 183.597126 -0.000000 0.462594 0.393009 -0.369481
5.250000 11.415265 -4.855355 -0.000000 0.163343 0.213353 -0.140706 -219.800782 221.104086 -0.000000 0.464688 0.383584 -0.369725
5.255000 8.261260 -7.451269 -0.000000 0.160481 0.222129 -0.140249 -229.196017 266.188816 -0.000000 0.466240 0.373909 -0.369789
5.260000 6.252792 -8.679023 -0.000000 0.158085 0.231466 -0.139909 -238.730065 318.972633 -0.000000 0.467160 0.364037 -0.369781
5.265000 4.920353 -8.892500 -0.000000 0.156244 0.241233 -0.139764 -248.212633 379.128893 -0.000000 0.467280 0.353717 -0.370081
5.270000 3.908960 -8.264056 -0.000000 0.154873 0.250947 -0.139682 -257.934907 445.395934 -0.000000 0.466922 0.343067 -0.370723
5.275000 2.990392 -6.830668 -0.000000 0.154235 0.261092 -0.139597 -267.212891 516.503444 -0.000000 0.466202 0.332113 -0.370657
5.280000 2.150230 -4.511844 -0.000000 0.154259 0.271368 -0.139295 -276.252871 590.404335 -0.000000 0.464948 0.320890 -0.370838
5.285000 1.552538 -1.207741 -0.000000 0.155055 0.281785 -0.139006 -285.117121 665.386425 -0.000000 0.463280 0.309586 -0.370931
5.290000 1.436740 3.095647 -0.000000 0.156442 0.292380 -0.138632 -293.757184 740.200323 -0.000000 0.461143 0.298366 -0.371013
5.295000 1.947341 8.270631 -0.000000 0.158500 0.302609 -0.138339 -303.413073 813.586703 -0.000000 0.458490 0.287298 -0.371029
5.300000 3.054499 14.067178 -0.000000 0.161231 0.312978 -0.138104 -312.333208 885.927659 -0.000000 0.455407 0.276363 -0.370818
5.305000 4.563373 20.204324 -0.000000 0.164695 0.323349 -0.138043 -319.888803 957.493691 -0.000000 0.451713 0.265551 -0.370881
5.310000 6.211607 26.445160 -0.000000 0.168551 0.333659 -0.137794 -325.707235 1028.659434 -0.000000 0.447499 0.254959 -0.370826
5.315000 7.797297 32.629916 -0.000000 0.173203 0.343808 -0.137659 -328.194602 1100.048478 -0.000000 0.442535 0.244615 -0.370867
5.320000 9.166497 38.718188 -0.000000 0.178333 0.353844 -0.137568 -325.874176 1171.627130 -0.000000 0.437021 0.234584 -0.370987
5.325000 10.214210 44.823914 -0.000000 0.184025 0.363696 -0.137498 -316.828167 1242.597936 -0.000000 0.430909 0.224971 -0.371150
5.330000 10.890922 51.228071 -0.000000 0.190320 0.373292 -0.137420 -299.300782 1311.355283 -0.000000 0.424369 0.215782 -0.371250
5.335000 11.225382 58.340536 -0.000000 0.197014 0.382587 -0.137367 -272.151209 1375.725129 -0.000000 0.417309 0.207017 -0.371342
5.340000 11.356483 66.625938 -0.000000 0.204222 0.391611 -0.137423 -234.663480 1433.330359 -0.000000 0.409744 0.198778 -0.371270
5.345000 11.448722 76.535119 -0.000000 0.211805 0.400250 -0.137455 -188.411385 1481.598604 -0.000000 0.401730 0.191162 -0.371283
5.350000 11.764599 88.382067 -0.000000 0.219792 0.408403 -0.137503 -134.614824 1518.445683 -0.000000 0.393357 0.184134 -0.371245
5.355000 12.528162 102.257783 -0.000000 0.228188 0.415736 -0.137416 -75.242976 1542.111086 -0.000000 0.384516 0.177838 -0.371216
5.360000 13.960661 117.966026 -0.000000 0.236887 0.422645 -0.137305 -11.114179 1551.375205 -0.000000 0.375445 0.172035 -0.371104
5.365000 16.078348 135.048697 -0.000000 0.245901 0.428995 -0.137116 55.563402 1545.470585 -0.000000 0.366101 0.166719 -0.371214
5.370000 18.931876 152.831577 -0.000000 0.255562 0.434999 -0.136242 124.208034 1524.149807 -0.000000 0.356472 0.162085 -0.371249
5.375000 21.650155 170.692153 -0.000000 0.264809 0.439966 -0.136549 185.950907 1488.610691 -0.000000 0.346637 0.158060 -0.371411
5.380000 24.591035 187.939786 -0.000000 0.274575 0.444475 -0.136532 244.442743 1439.820003 -0.000000 0.336648 0.154506 -0.371586
5.385000 27.349919 204.129846 -0.000000 0.284519 0.448394 -0.136506 295.666384 1379.983700 -0.000000 0.326561 0.151702 -0.371798
5.390000 30.002269 218.902964 -0.000000 0.294768 0.451965 -0.136549 339.453126 1311.152393 -0.000000 0.316385 0.149562 -0.372007
5.395000 32.122128 232.070073 -0.000000 0.304808 0.454548 -0.136592 372.680452 1236.295425 -0.000000 0.306203 0.148008 -0.372369
5.400000 34.055904 243.397739 -0.000000 0.315010 0.456712 -0.136406 397.341620 1157.051099 -0.000000 0.296014 0.147077 -0.372725
5.405000 35.671474 252.797975 -0.000000 0.325273 0.458527 -0.136268 413.150059 1075.438163 -0.000000 0.285882 0.146728 -0.373120
5.410000 36.749452 260.337211 -0.000000 0.335276 0.459638 -0.136019 420.034363 993.278183 -0.000000 0.275819 0.147089 -0.373518
5.415000 37.371092 266.211779 -0.000000 0.345125 0.460043 -0.135910 419.249302 911.702057 -0.000000 0.265923 0.148096 -0.374012
5.420000 37.712403 270.763448 -0.000000 0.354868 0.459646 -0.135840 412.085123 831.615175 -0.000000 0.256268 0.149848 -0.374369
5.425000 37.432340 274.531222 -0.000000 0.364002 0.458706 -0.135579 398.121813 754.639735 -0.000000 0.246905 0.152116 -0.374821
5.430000 37.315788 277.984398 -0.000000 0.372958 0.456881 -0.134957 380.106070 680.589141 -0.000000 0.237825 0.155117 -0.375227
5.435000 37.349330 281.752430 -0.000000 0.381543 0.454287 -0.134491 358.189540 610.342916 -0.000000 0.229144 0.158660 -0.375574
5.440000 37.915000 286.419155 -0.000000 0.389817 0.451031 -0.133778 333.558352 544.190436 -0.000000 0.220777 0.162734 -0.375989
5.445000 39.109038 292.557685 -0.000000 0.397510 0.447093 -0.133272 306.950188 482.803320 -0.000000 0.212738 0.167350 -0.376361
5.450000 41.425914 300.563326 -0.000000 0.405012 0.442507 -0.132213 279.951598 426.348235 -0.000000 0.205171 0.172635 -0.376771
5.455000 44.821464 310.701083 -0.000000 0.411945 0.437004 -0.131552 253.291501 375.386050 -0.000000 0.198093 0.178367 -0.377015
5.460000 48.881775 323.064980 -0.000000 0.418190 0.431318 -0.130802 227.469234 330.407942 -0.000000 0.191542 0.184622 -0.377264
5.465000 53.908289 337.461372 -0.000000 0.423826 0.424983 -0.130309 203.813693 291.023377 -0.000000 0.185441 0.191381 -0.377475
